<?xml version="1.0" encoding="utf-8"?>
<!-- Svg Vector Icons : http://www.onlinewebfonts.com/icon -->
<!DOCTYPE svg PUBLIC "-//W3C//DTD SVG 1.1//EN" "http://www.w3.org/Graphics/SVG/1.1/DTD/svg11.dtd">
<svg version="1.1" xmlns="http://www.w3.org/2000/svg" xmlns:xlink="http://www.w3.org/1999/xlink" x="0px" y="0px" viewBox="0 0 256 256" enable-background="new 0 0 256 256" xml:space="preserve">
<metadata> Svg Vector Icons : http://www.onlinewebfonts.com/icon </metadata>
<g><g><g><path fill="#000000" d="M106.8,11.4c-16.2,2.9-36.1,11.5-49.2,21.3c-24.2,18.1-41.2,45.5-46.3,74.8c-1.8,10.8-1.8,29.8,0.1,40.7c6.2,36.1,29.7,67.9,62.4,84.8C91,241.9,108,246,128.1,246c19.9,0,36.7-4.1,53.9-12.8l8.3-4.3l23.4,8.6c12.8,4.7,24.5,8.6,26,8.6c3.3,0,6.3-3,6.3-6.3c0-1.5-3.9-13.1-8.6-26l-8.6-23.4l4.3-8.3c8.8-17.2,12.8-34,12.8-53.9c0-20-4.1-37-12.9-54.2c-16.9-32.7-48.7-56.2-84.7-62.5C138,9.5,117,9.6,106.8,11.4z M145.1,25.6c22.4,3.9,40.9,13.6,57,30.1c28.2,28.8,37.1,70.1,23.2,108.1c-1.6,4.3-4.4,10.6-6.3,14.1c-6.9,12.3-7,9.1,0.6,29.4c3.8,10,6.5,18.3,6.3,18.6c-0.3,0.2-8.6-2.6-18.6-6.3c-20.3-7.6-17.1-7.5-29.4-0.6c-39.6,22-89.7,15-122.2-16.9c-16.5-16.2-26.3-34.8-30.1-57c-3.6-21.1,0-44.9,9.6-63.8C55.5,41,101,18,145.1,25.6z"/></g></g></g>
</svg>