<?xml version="1.0" encoding="utf-8"?>
<!-- Svg Vector Icons : http://www.onlinewebfonts.com/icon -->
<!DOCTYPE svg PUBLIC "-//W3C//DTD SVG 1.1//EN" "http://www.w3.org/Graphics/SVG/1.1/DTD/svg11.dtd">
<svg version="1.1" xmlns="http://www.w3.org/2000/svg" xmlns:xlink="http://www.w3.org/1999/xlink" x="0px" y="0px" viewBox="0 0 256 256" enable-background="new 0 0 256 256" xml:space="preserve">
<metadata> Svg Vector Icons : http://www.onlinewebfonts.com/icon </metadata>
<g><g><g><path fill="#000000" d="M113.5,10.4C85.8,14.1,60.8,26.7,42,46.6C28.3,61.1,18.2,79.2,13.4,97.9c-3.1,11.9-3.4,15.1-3.4,30c0,14.9,0.4,18.2,3.4,30c7.9,31,29.6,58.6,58,73.9c18.3,9.8,35.6,14.2,56.5,14.2c19.4,0,35.6-3.7,52.2-12c12.6-6.3,21.4-12.7,31.3-22.6c16.5-16.5,27.6-36.7,32.3-59.1c3.3-15.5,3.2-34.2-0.3-50.2c-5.7-26.4-22.2-52-44-68.4c-15.7-11.8-32.4-19-52.3-22.6C141.3,10.1,119.5,9.6,113.5,10.4z M139.2,25c52.2,5.7,92.2,50.3,92.2,103c0,52.2-38.7,96-90.7,102.8c-48,6.2-94.8-22.8-110.6-68.6c-14.4-41.6-1.5-86.9,32.7-114.8C77,35.7,97.4,27,115.6,25C121.6,24.3,133.3,24.3,139.2,25z"/><path fill="#000000" d="M105.5,127.9c0,28.4,0.1,51.5,0.3,51.5c0.5,0,68.4-51.1,68.4-51.5c0-0.4-67.9-51.5-68.4-51.5C105.6,76.4,105.5,99.6,105.5,127.9z"/></g></g></g>
</svg>