<?xml version="1.0" encoding="utf-8"?>
<!-- Svg Vector Icons : http://www.onlinewebfonts.com/icon -->
<!DOCTYPE svg PUBLIC "-//W3C//DTD SVG 1.1//EN" "http://www.w3.org/Graphics/SVG/1.1/DTD/svg11.dtd">
<svg version="1.1" xmlns="http://www.w3.org/2000/svg" xmlns:xlink="http://www.w3.org/1999/xlink" x="0px" y="0px" viewBox="0 0 256 256" enable-background="new 0 0 256 256" xml:space="preserve">
<metadata> Svg Vector Icons : http://www.onlinewebfonts.com/icon </metadata>
<g><g><g><path fill="#000000" d="M57.1,10.8c-3.5,1.2-6,3-7.6,5.5c-2.9,4.6-2.7-3.5-2.6,112.7l0.1,105.9l1.2,2.6c2.5,5.4,7.4,8.5,13.3,8.5c6.6,0,5.3,1.1,37.8-31.3l28.7-28.7l28.8,28.7c32.4,32.4,31.1,31.3,37.7,31.3c6,0,10.8-3.1,13.3-8.5l1.2-2.6V128.1V21.2l-1.2-2.6c-1.5-3.3-4-5.8-7.3-7.3l-2.6-1.2L128.8,10C63.2,9.9,59.4,9.9,57.1,10.8z M191.1,25.9c0.7,0.5,1.7,1.5,2.2,2.2c0.9,1.2,1,2,1.1,13.7l0.1,12.4h-66.5H61.6V42.5c0-12.2,0.2-13.5,2-15.5c2.3-2.4-0.8-2.3,65-2.2C189.7,24.9,189.9,24.9,191.1,25.9z M194.5,146.8l-0.1,77.8l-1.2,1.1c-1.2,1-1.5,1.1-2.8,0.6c-1.1-0.3-10.2-9.1-29.7-28.6c-15.5-15.4-28.8-28.3-29.4-28.5c-1.8-0.7-4.2-0.6-6.2,0.2c-1.2,0.5-10.2,9.2-29.4,28.4c-17.9,17.9-28.1,27.7-28.9,27.9c-2.2,0.6-3.4,0.1-4.2-1.6c-0.8-1.5-0.8-6.2-0.8-78.4V69h66.5h66.5L194.5,146.8z"/></g></g></g>
</svg>