<?xml version="1.0" encoding="utf-8"?>
<!-- Svg Vector Icons : http://www.onlinewebfonts.com/icon -->
<!DOCTYPE svg PUBLIC "-//W3C//DTD SVG 1.1//EN" "http://www.w3.org/Graphics/SVG/1.1/DTD/svg11.dtd">
<svg version="1.1" xmlns="http://www.w3.org/2000/svg" xmlns:xlink="http://www.w3.org/1999/xlink" x="0px" y="0px" viewBox="0 0 256 256" enable-background="new 0 0 256 256" xml:space="preserve">
<metadata> Svg Vector Icons : http://www.onlinewebfonts.com/icon </metadata>
<g><g><g><path fill="#000000" d="M126.2,10.3c-0.5,0.2-9.8,9.4-20.7,20.3c-19,19.1-19.8,19.9-19.8,21.6c0,3.4,3,5.7,6,4.6c0.8-0.3,8.1-7.2,16.4-15.5l15-15v74.4V175l1.4,1.5c1.1,1.3,1.7,1.6,3.4,1.6c1.7,0,2.2-0.3,3.4-1.6l1.4-1.5v-74.4V26.2l15,15c8.3,8.3,15.6,15.2,16.4,15.5c3,1.1,6-1.2,6-4.6c0-1.7-0.8-2.5-20-21.8C129.3,9.7,128.8,9.2,126.2,10.3z"/><path fill="#000000" d="M39.1,91l-1.3,1.1v75.8v75.8l1.3,1.1l1.3,1.1h87.3c59,0,87.6-0.1,88.2-0.5c2.4-1.3,2.3,2.6,2.3-77.6s0.1-76.3-2.3-77.6c-0.6-0.3-8.8-0.5-23.1-0.5c-24.5,0-23.7-0.1-24.7,3.1c-0.7,2,0.4,4.5,2.2,5.4c0.8,0.4,6.9,0.5,19.8,0.5h18.7v69.1V237h-80.9H47v-69.1V98.9h18.7c12.9,0,19-0.1,19.8-0.5c1.8-0.9,2.8-3.4,2.2-5.4c-1-3.2-0.2-3.1-24.9-3.1H40.4L39.1,91z"/></g></g></g>
</svg>