<?xml version="1.0" encoding="utf-8"?>
<!-- Svg Vector Icons : http://www.onlinewebfonts.com/icon -->
<!DOCTYPE svg PUBLIC "-//W3C//DTD SVG 1.1//EN" "http://www.w3.org/Graphics/SVG/1.1/DTD/svg11.dtd">
<svg version="1.1" xmlns="http://www.w3.org/2000/svg" xmlns:xlink="http://www.w3.org/1999/xlink" x="0px" y="0px" viewBox="0 0 256 256" enable-background="new 0 0 256 256" xml:space="preserve">
<metadata> Svg Vector Icons : http://www.onlinewebfonts.com/icon </metadata>
<g><g><path fill="#000000" d="M244.8,122"/><path fill="#000000" d="M246,116.8"/><path fill="#000000" d="M39.9,241.4c-8.3,0-18.2-5.6-22.7-12.8c-0.3-0.5-7.2-11.7-7.2-24.6c0-5.4,0.7-10.8,2.2-16c5.1-18.6,19.3-35.4,40-47.5l0.6-0.3l0.4,0.5c2.1,2.6,4.4,5.2,7.1,7.8l0.8,0.7l-0.9,0.5c-19.2,10.5-32.2,25.2-36.7,41.5c-1.1,4.1-1.7,8.4-1.7,12.7c0,9.1,5.3,17.9,5.3,18c2.3,3.7,8.6,7.3,12.9,7.3l166.9-0.2c4.5,0,11.1-3.4,13.7-7.2c0.1-0.1,6.3-9,6.3-17.9c0-3.3-0.4-6.7-1.1-9.9c-4.8-22.6-26-42.2-56.7-52.5c-12.6,11.1-28.5,17.2-44.9,17.2c-38.3,0-69.4-32.4-69.4-72.1S86,14.6,124.3,14.6c38.3,0,69.4,32.4,69.4,72.1c0,16.4-5.4,32.4-15.3,45.2c15.2,5.8,28.5,14,38.6,24c10.6,10.4,17.6,22.8,20.4,35.7c0.9,4.2,1.3,8.4,1.3,12.5c0,12.6-7.8,23.9-8.6,25.1c-4.8,6.8-15,12.1-23.1,12.1L39.9,241.4L39.9,241.4L39.9,241.4z M124.3,26.7c-31.8,0-57.7,26.9-57.7,60c0,33.1,25.9,60,57.7,60c31.8,0,57.7-26.9,57.7-60C182,53.6,156.1,26.7,124.3,26.7z"/><path fill="#000000" d="M68,86.7"/></g></g>
</svg>