<?xml version="1.0" encoding="utf-8"?>
<!-- Svg Vector Icons : http://www.onlinewebfonts.com/icon -->
<!DOCTYPE svg PUBLIC "-//W3C//DTD SVG 1.1//EN" "http://www.w3.org/Graphics/SVG/1.1/DTD/svg11.dtd">
<svg version="1.1" xmlns="http://www.w3.org/2000/svg" xmlns:xlink="http://www.w3.org/1999/xlink" x="0px" y="0px" viewBox="0 0 256 256" enable-background="new 0 0 256 256" xml:space="preserve">
<metadata> Svg Vector Icons : http://www.onlinewebfonts.com/icon </metadata>
<g><g><g><path fill="#000000" d="M200.5,11.1c-4.5,1.2-8.8,3.3-12.8,6.3c-1.7,1.3-29.4,28.6-61.5,60.8l-58.3,58.4l-10.3,32.3c-6,18.8-10.3,33.1-10.3,34.3c0,2.8,2.7,5.5,5.4,5.5c1.1,0,15.8-4.4,32.8-9.8c16.9-5.3,31.6-10,32.4-10.3c2.1-0.6,119.4-118.1,122-122.2c4-6.1,6-12.9,6-20c0-16.8-11-31.2-27-35.3C213.8,9.8,205.6,9.8,200.5,11.1z M214.8,22.6c7.3,1.6,13.6,6.4,16.7,12.7c3.4,6.9,3.6,13.5,0.6,20.5l-1.1,2.6l-16.6-16.6c-9.1-9.1-16.5-16.7-16.3-16.9c0.3-0.4,6-2.4,7.9-2.7C208.6,21.8,211.5,22,214.8,22.6z M205.7,50.6l16.9,16.9l-53.4,53.4l-53.4,53.4l-17.2-17.2l-17.2-17.2l53.1-53.1c29.2-29.2,53.3-53.1,53.6-53.1C188.6,33.7,196.4,41.3,205.7,50.6z M90.5,165.8c7.7,7.7,14,14.2,13.9,14.3c-0.5,0.5-41.2,13.2-41.4,12.9c-0.2-0.1,2.3-8.4,5.5-18.4c3.2-10,6.1-19.2,6.5-20.6c0.4-1.3,0.9-2.4,1.1-2.4C76.3,151.7,82.8,158.1,90.5,165.8z"/><path fill="#000000" d="M27.2,34.4c-8,2-14.4,8.2-16.4,15.8c-0.8,3-0.9,10.5-0.7,91.3l0.2,88l1.9,3.8c2.4,4.8,6.3,8.6,11,10.9l3.5,1.6h89.5h89.5l3.3-1.6c4.1-2,8-5.4,10.1-9c3.4-5.6,3.3-3,3.1-66.1l-0.2-57.1l-1.7-1.5c-2.4-2.1-5.5-2.1-7.9,0l-1.7,1.5l-0.3,57.2l-0.3,57.1l-1.3,2.3c-0.7,1.2-2.3,3-3.5,3.8l-2.3,1.5l-86.3,0.2c-96.3,0.2-88.9,0.4-92.4-3.5c-1-1.1-2-2.9-2.3-4c-0.4-1.3-0.6-28.7-0.6-87.2V54.3l1.4-2.7c1-2,2.1-3.2,4-4.3l2.5-1.5l57-0.3c31.4-0.2,57.4-0.5,57.9-0.7c1.3-0.7,2.4-3,2.4-5.4c0-1.6-0.4-2.5-1.5-3.7L144,34l-57.2-0.1C42.7,33.8,29.2,33.9,27.2,34.4z"/></g></g></g>
</svg>